# xmcd CD database file
#
# Track frame offsets:
#	150
#	12091
#	24375
#	32668
#	41922
#	52686
#	60340
#	71741
#	79720
#	88812
#	98252
#	107140
#	118508
#	129462
#	142485
#	156543
#	170987
#	187249
#	199209
#	207611
#	221142
#	227664
#	247090
#	256677
#	265123
#	274184
#	284946
#	295107
#	303041
#	317387
#
# Disc length: 4394 seconds
#
# Revision: 0
# Processed by: cddbd v1.5.2PL0 Copyright (c) Steve Scherf et al.
# Submitted via: CDex 1.51
#
DISCID=c611281e
DTITLE=Anita O'Day And  Billy May - Anita O'Day Eight Classic Albums CD 3
DYEAR=1959
DGENRE=Jazz
TTITLE0=Just One Of Those Things (Anita O'Day Swings Cole Porter With  Billy May - 1959)
TTITLE1=Love For Sale
TTITLE2=You'd Be So Nice To Come Home To
TTITLE3=Easy Yo Love
TTITLE4=I Get A Kick Out Of You
TTITLE5=All Of You
TTITLE6=Get Out Of Town
TTITLE7=I've Got You Under My Skin
TTITLE8=Night And Day
TTITLE9=It's Delovely
TTITLE10=I love You
TTITLE11=What Is This Thing Called Love
TTITLE12=You're The Top
TTITLE13=My Heart Belongs To Daddy
TTITLE14=Why Shouldn't I
TTITLE15=From This Moment On
TTITLE16=Love For Sale
TTITLE17=Just One Of Those Things
TTITLE18=Johnny One Note (Anita O'Day And  Billy May Swing Rodgers And Hart - 1960)
TTITLE19=Little Girl Blue
TTITLE20=Falling In Love With Love
TTITLE21=Bewitched, Bothered and Bewildered
TTITLE22=I Could Write A Book
TTITLE23=Have You Met Miss Jones
TTITLE24=Lover
TTITLE25=I Never Entered My Mind
TTITLE26=Ten Cents A Dance
TTITLE27=I've Got Five Dollars
TTITLE28=To Keep My Love Alive
TTITLE29=Sprig Is Here
EXTD=YEAR: 1959
EXTT0=
EXTT1=
EXTT2=
EXTT3=
EXTT4=
EXTT5=
EXTT6=
EXTT7=
EXTT8=
EXTT9=
EXTT10=
EXTT11=
EXTT12=
EXTT13=
EXTT14=
EXTT15=
EXTT16=
EXTT17=
EXTT18=
EXTT19=
EXTT20=
EXTT21=
EXTT22=
EXTT23=
EXTT24=
EXTT25=
EXTT26=
EXTT27=
EXTT28=
EXTT29=
PLAYORDER=
